<mxfile host="app.diagrams.net" modified="2024-05-18T15:21:21.398Z" agent="Mozilla/5.0 (Windows NT 10.0; Win64; x64) AppleWebKit/537.36 (KHTML, like Gecko) Chrome/123.0.0.0 Safari/537.36 OPR/109.0.0.0 (Edition std-1)" version="24.4.4" etag="QdiiaTGs0nyT1CFlQkqN" type="github">
  <diagram name="PÃ¡gina-1" id="rTw9u5IlRh7EWCYvDDNI">
    <mxGraphModel>
      <root>
        <mxCell id="0" />
        <mxCell id="1" parent="0" />
      </root>
    </mxGraphModel>
  </diagram>
</mxfile>
